<?xml version="1.0" encoding="utf-8"?>
<!-- Generator: Adobe Illustrator 21.0.0, SVG Export Plug-In . SVG Version: 6.00 Build 0)  -->
<svg version="1.1" id="Ebene_1" xmlns="http://www.w3.org/2000/svg" xmlns:xlink="http://www.w3.org/1999/xlink" x="0px" y="0px"
	 viewBox="0 0 50 50" style="enable-background:new 0 0 50 50;" xml:space="preserve">
<style type="text/css">
	.st0{fill:#777777;}
</style>
<g>
	<g id="_x31_">
	</g>
	<g id="TOP">
	</g>
	<g id="LOGO__x2B__MENU">
	</g>
	<g id="RELATED">
	</g>
	<g id="FOOTER">
	</g>
	<g>
		<g>
			<path class="st0" d="M41.2,31.3c0-0.1-0.1-0.1-0.1-0.2c-0.4-0.6-1-1-1.7-1.1c-0.7-0.1-1.4,0-2,0.5l-7.6,5.5h-8
				c-0.4,0-0.7-0.3-0.7-0.7s0.3-0.7,0.7-0.7h4.4c1.3,0,2.4-1.1,2.4-2.4c0,0,0-0.1,0-0.1c0-1.3-1.2-2.3-2.4-2.3h-8.9
				c-0.8,0-1.6,0.3-2.2,0.8l-3.3,2.8c-0.2,0.1-0.2,0.3-0.2,0.5v8.2c0,0.4,0.3,0.7,0.7,0.7h17c1.1,0,2.2-0.4,3-1.1l8.3-6.8
				C41.6,34,41.9,32.5,41.2,31.3z M39.7,33.8l-8.3,6.9c-0.6,0.5-1.4,0.8-2.2,0.8H12.9v-7.2l3.1-2.6c0.4-0.3,0.8-0.5,1.3-0.5l8.9,0
				c0.6,0,1,0.4,1.1,1c0,0.6-0.5,1-1,1h-4.4c-1.1,0-2.1,0.9-2.1,2.1s0.9,2.1,2.1,2.1H30c0.1,0,0.3,0,0.4-0.1l7.8-5.6
				c0.3-0.2,0.6-0.3,1-0.2c0.3,0.1,0.6,0.2,0.8,0.5c0,0,0,0.1,0.1,0.1C40.4,32.6,40.2,33.3,39.7,33.8z"/>
		</g>
	</g>
	<g>
		<g>
			<path class="st0" d="M12.2,32.5H4.7v1.4h6.8v10.3H4.7v1.4h7.5c0.4,0,0.7-0.3,0.7-0.7V33.2C12.9,32.8,12.6,32.5,12.2,32.5z"/>
		</g>
	</g>
	<g>
		<g>
			<path class="st0" d="M8.1,38.7C7,38.7,6,39.6,6,40.7s0.9,2.1,2.1,2.1s2.1-0.9,2.1-2.1C10.1,39.6,9.2,38.7,8.1,38.7z M8.1,41.4
				c-0.4,0-0.7-0.3-0.7-0.7S7.7,40,8.1,40c0.4,0,0.7,0.3,0.7,0.7S8.5,41.4,8.1,41.4z"/>
		</g>
	</g>
	<g>
		<g>
			<path class="st0" d="M45,25.7H5.4c-0.4,0-0.7,0.3-0.7,0.7c0,2.6,2.1,4.8,4.8,4.8h31.4c2.6,0,4.8-2.1,4.8-4.8
				C45.7,26,45.4,25.7,45,25.7z M40.9,29.8H9.5c-1.7,0-3-1.2-3.3-2.7h38.1C43.9,28.6,42.6,29.8,40.9,29.8z"/>
		</g>
	</g>
	<g>
		<g>
			<path class="st0" d="M25.2,7.9c-9.8,0-17.8,8-17.8,17.8v0.7c0,0.4,0.3,0.7,0.7,0.7h34.2c0.4,0,0.7-0.3,0.7-0.7v-0.7
				C43,15.9,35,7.9,25.2,7.9z M8.8,25.7c0-9,7.4-16.4,16.4-16.4s16.4,7.4,16.4,16.4H8.8z"/>
		</g>
	</g>
	<g>
		<g>
			<path class="st0" d="M13.9,15.7c-0.5,0.5-0.9,1.1-1.3,1.7l1.1,0.8c0.4-0.5,0.8-1.1,1.2-1.6L13.9,15.7z"/>
		</g>
	</g>
	<g>
		<g>
			<path class="st0" d="M25.2,10.7c-3.8,0-7.5,1.5-10.3,4.1l0.9,1c2.5-2.4,5.9-3.7,9.4-3.7L25.2,10.7z"/>
		</g>
	</g>
	<g>
		<g>
			<rect x="23.1" y="4.5" class="st0" width="4.1" height="1.4"/>
		</g>
	</g>
	<g>
		<g>
			<rect x="24.5" y="5.2" class="st0" width="1.4" height="3.4"/>
		</g>
	</g>
</g>
</svg>
